<svg xmlns="http://www.w3.org/2000/svg" width="1200" height="800" viewBox="0 0 1200 800">
  <defs>
    <linearGradient id="bg" x1="0" y1="0" x2="1" y2="1">
      <stop offset="0" stop-color="#ffffff" />
      <stop offset="1" stop-color="#f4f4f5" />
    </linearGradient>
    <radialGradient id="glow" cx="35%" cy="30%" r="60%">
      <stop offset="0" stop-color="#fde68a" stop-opacity="0.85" />
      <stop offset="1" stop-color="#fde68a" stop-opacity="0" />
    </radialGradient>
  </defs>
  <rect width="1200" height="800" rx="32" fill="url(#bg)" />
  <rect width="1200" height="800" rx="32" fill="url(#glow)" />
  <g opacity="0.14" stroke="#111827" stroke-width="2">
    <path d="M80 650 C 220 560, 360 560, 500 650" fill="none" />
    <path d="M700 650 C 840 560, 980 560, 1120 650" fill="none" />
    <path d="M140 180 C 320 80, 520 120, 680 220" fill="none" />
  </g>
  <g transform="translate(720 180)">
    <circle cx="180" cy="220" r="170" fill="none" stroke="#d4af37" stroke-width="16" />
    <circle cx="180" cy="220" r="96" fill="none" stroke="#111827" stroke-opacity="0.18" stroke-width="12" />
    <g fill="#d4af37">
      <path d="M180 22 l22 40 44 10-30 34 6 46-42-20-42 20 6-46-30-34 44-10z" opacity="0.95" />
    </g>
  </g>
  <g transform="translate(96 96)" font-family="system-ui, -apple-system, Segoe UI, Roboto, Arial" fill="#111827">
    <text x="0" y="72" font-size="64" font-weight="700" letter-spacing="-0.02em">Jeweler Starter</text>
    <text x="0" y="118" font-size="22" opacity="0.7">Seed artwork (SVG). Replace from the Media Manager.</text>
  </g>
</svg>
