<svg xmlns="http://www.w3.org/2000/svg" width="800" height="600" viewBox="0 0 800 600">
  <defs>
    <linearGradient id="bg" x1="0" y1="0" x2="1" y2="1">
      <stop offset="0" stop-color="#f8fafc" />
      <stop offset="1" stop-color="#e2e8f0" />
    </linearGradient>
  </defs>
  <rect width="800" height="600" rx="28" fill="url(#bg)" />
  <path d="M160 210 C 240 120, 320 90, 400 90 C 480 90, 560 120, 640 210" fill="none" stroke="#d4af37" stroke-width="14" stroke-linecap="round" />
  <path d="M210 240 C 270 180, 330 150, 400 150 C 470 150, 530 180, 590 240" fill="none" stroke="#111827" stroke-opacity="0.12" stroke-width="10" stroke-linecap="round" />
  <g transform="translate(0 0)">
    <circle cx="400" cy="310" r="56" fill="#fff" opacity="0.9" />
    <path d="M400 250 l18 34 38 8-26 30 5 40-35-18-35 18 5-40-26-30 38-8z" fill="#d4af37" />
  </g>
</svg>
