<svg xmlns="http://www.w3.org/2000/svg" width="800" height="600" viewBox="0 0 800 600">
  <defs>
    <linearGradient id="bg" x1="0" y1="0" x2="1" y2="1">
      <stop offset="0" stop-color="#f8fafc" />
      <stop offset="1" stop-color="#e2e8f0" />
    </linearGradient>
  </defs>
  <rect width="800" height="600" rx="28" fill="url(#bg)" />
  <path d="M160 220 C 250 120, 330 92, 400 92 C 470 92, 550 120, 640 220" fill="none" stroke="#d4af37" stroke-width="14" stroke-linecap="round" />
  <path d="M220 252 C 280 192, 335 170, 400 170 C 465 170, 520 192, 580 252" fill="none" stroke="#111827" stroke-opacity="0.12" stroke-width="10" stroke-linecap="round" />
  <circle cx="400" cy="320" r="66" fill="#ffffff" opacity="0.9" />
  <path d="M400 260 l20 38 42 9-28 33 5 44-39-20-39 20 5-44-28-33 42-9z" fill="#d4af37" />
</svg>
